<?xml version="1.0" encoding="utf-8"?>
<!-- Generator: Adobe Illustrator 21.0.0, SVG Export Plug-In . SVG Version: 6.00 Build 0)  -->
<svg version="1.1" id="Layer_1" xmlns="http://www.w3.org/2000/svg" xmlns:xlink="http://www.w3.org/1999/xlink" x="0px" y="0px"
	 viewBox="0 0 72 72" style="enable-background:new 0 0 72 72;" xml:space="preserve">
<style type="text/css">
	.st0{fill:#828282;}
	.st1{fill:none;stroke:#FFFFFF;stroke-width:1.9208;stroke-miterlimit:10;}
	.st2{fill:#FFFFFF;stroke:#808080;stroke-miterlimit:10;}
	.st3{fill:#FFFFFF;stroke:#FFFFFF;stroke-miterlimit:10;}
	.st4{fill:#FFFFFF;}
</style>
<g>
	<circle class="st0" cx="36" cy="36" r="35"/>
	<g>
		<g>
			<path class="st2" d="M30.7,48.1C30.7,48.3,30.7,48.3,30.7,48.1c0,1.9,2.6,3.6,5.5,3.6c3,0,5.5-1.5,5.5-3.4l0,0H30.7V48.1z"/>
		</g>
		<g>
			<path class="st2" d="M20.2,48.9c0-0.9,0-1.5,0-2.3c0-0.2,0.2-0.2,0.2-0.4c1.5-0.9,2.8-1.9,3.6-3.4c0.9-1.3,1.3-2.8,1.3-4.5
				c0-1.9,0.2-3.8,0.4-5.8c0.2-2.1,0.9-4.3,2.1-6s2.8-2.8,4.9-3.2c0.2,0,0.4,0,0.4-0.2c0-1.7,1.1-2.8,2.6-2.8s2.6,1.1,2.6,2.8
				c0.9,0.4,1.9,0.6,2.8,1.1c2.1,1.1,3.4,3,4.3,5.3c0.6,1.7,0.9,3.6,1.1,5.5c0,1.1,0,2.1,0,3c0,2.6,0.9,4.5,2.8,6.2
				c0.6,0.6,1.5,1.1,2.3,1.7c0.2,0.2,0.2,0.2,0.2,0.4c0,0.6,0,1.5,0,2.1H20.2V48.9z"/>
		</g>
	</g>
</g>
</svg>
