<?xml version="1.0" encoding="utf-8"?>
<!-- Generator: Adobe Illustrator 21.0.0, SVG Export Plug-In . SVG Version: 6.00 Build 0)  -->
<svg version="1.1" id="Layer_1" xmlns="http://www.w3.org/2000/svg" xmlns:xlink="http://www.w3.org/1999/xlink" x="0px" y="0px"
	 viewBox="0 0 72 72" style="enable-background:new 0 0 72 72;" xml:space="preserve">
<style type="text/css">
	.st0{fill:#828282;}
	.st1{fill:none;stroke:#FFFFFF;stroke-width:1.9208;stroke-miterlimit:10;}
	.st2{fill:#FFFFFF;stroke:#808080;stroke-miterlimit:10;}
	.st3{fill:#FFFFFF;stroke:#FFFFFF;stroke-miterlimit:10;}
	.st4{fill:#FFFFFF;}
</style>
<g>
	<circle class="st0" cx="36" cy="36" r="35"/>
	<g>
		<path class="st3" d="M25.6,51.4h-4.2c-0.9,0-1.7-0.8-1.7-1.8v-15c0-1,0.7-1.8,1.7-1.8h4.2c0.9,0,1.7,0.8,1.7,1.8v15
			C27.2,50.6,26.5,51.4,25.6,51.4"/>
		<path class="st3" d="M38.1,51.4h-4.2c-0.9,0-1.7-0.8-1.7-1.8V28.6c0-1,0.7-1.8,1.7-1.8h4.2c0.9,0,1.7,0.8,1.7,1.8v21.1
			C39.7,50.6,39,51.4,38.1,51.4"/>
		<path class="st3" d="M50.6,51.4h-4.2c-0.9,0-1.7-0.8-1.7-1.8V22.3c0-1,0.7-1.8,1.7-1.8h4.2c0.9,0,1.7,0.8,1.7,1.8v27.3
			C52.3,50.6,51.5,51.4,50.6,51.4"/>
	</g>
</g>
</svg>
