<?xml version="1.0" encoding="utf-8"?>
<!-- Generator: Adobe Illustrator 21.0.0, SVG Export Plug-In . SVG Version: 6.00 Build 0)  -->
<svg version="1.1" id="Layer_1" xmlns="http://www.w3.org/2000/svg" xmlns:xlink="http://www.w3.org/1999/xlink" x="0px" y="0px"
	 viewBox="0 0 72 72" style="enable-background:new 0 0 72 72;" xml:space="preserve">
<style type="text/css">
	.st0{fill:#828282;}
	.st1{fill:none;stroke:#FFFFFF;stroke-width:1.9208;stroke-miterlimit:10;}
	.st2{fill:#FFFFFF;stroke:#808080;stroke-miterlimit:10;}
	.st3{fill:#FFFFFF;stroke:#FFFFFF;stroke-miterlimit:10;}
	.st4{fill:#FFFFFF;}
</style>
<g>
	<circle class="st0" cx="36" cy="36" r="35"/>
	<path class="st4" d="M51,31.6l-2.5-0.7l0,0l0.4,0.1l0.9-3c0-0.1,0-0.2-0.1-0.3L48.4,27c0.2-1,1.5-6.2,1.5-6.2c0.1-0.3,0-0.7-0.2-1
		c-0.9-1.6-4.8-2.6-5.7-2.8c-3.5-0.7-4.3-0.4-4.5-0.1c-0.1,0.1-0.1,0.2-0.1,0.3l-1.5,4.5l-0.3-0.2c-0.1,0-0.1,0-0.2,0
		c-0.1,0-0.1,0.1-0.1,0.2l-1.7,5.9l-1.5-0.4c-0.1,0-0.1,0-0.2,0c-0.1,0-0.1,0.1-0.1,0.2l-3.4,14.5c-0.8-0.1-1.7-0.2-2.5-0.4
		c-0.8-0.1-1.8-0.3-2.6-0.4c-0.2,0-0.4-0.1-0.6-0.1c-0.7-0.1-1.6-0.2-2.3-0.1c-0.6,0.2-0.7,0.2-0.8,0.9v0.2
		c-0.3,1.9-0.5,3.8-0.6,5.7v0.6c-0.1,1.6,0.3,1.8,1.5,2.1l7.9,2.2v-0.1l0.9,1.6c0,0.1-0.1,1.5,0,1.6l0.8-0.8h1.6l12-0.6
		c0.1,0,0.2-0.1,0.2-0.2l5.4-22C51.2,31.7,51.1,31.6,51,31.6z"/>
	<path class="st2" d="M48.2,27l1.6-6.4c0.5-1.9-4.5-3.2-5.8-3.5c-4.8-0.9-4.3,0-4.3,0l-1.6,4.7"/>
	<path class="st2" d="M30.6,41.9c-1.9-0.2-3.6-0.6-5.5-0.8c-0.8-0.1-2-0.4-2.8-0.2c-0.6,0.2-0.6,0.2-0.7,0.9
		c-0.4,2.1-0.5,4.3-0.7,6.3c-0.1,1.6,0.3,1.6,1.5,1.9c1,0.3,2.1,0.6,3.2,0.8c1.6,0.4,3.1,0.8,4.7,1.2"/>
	<polyline class="st2" points="48.9,30.8 49.7,27.8 37.5,21.4 35.7,27.6 	"/>
	<polygon class="st2" points="51.2,31.6 45.6,53.9 30.8,55.2 29.5,46.2 34,27.1 	"/>
</g>
</svg>
